<svg width="30" height="30" viewBox="0 0 30 30" fill="none" xmlns="http://www.w3.org/2000/svg">
<path d="M20.9301 7.19479L22.7578 5.39046C23.193 4.95537 23.7831 4.71094 24.3985 4.71094C25.0138 4.71094 25.6039 4.95537 26.0391 5.39046C26.4742 5.82559 26.7186 6.41574 26.7186 7.03108C26.7186 7.64643 26.4742 8.23657 26.0391 8.67171L24.375 10.3123L20.9301 7.19479Z" fill="#BFBEAF"/>
<path d="M23.2266 6.32796C23.6617 5.89287 24.2518 5.64844 24.8672 5.64844C25.4825 5.64844 26.0727 5.89287 26.5078 6.32796C26.5599 6.38005 26.6086 6.43413 26.6546 6.48973C26.5553 6.07332 26.3422 5.69272 26.0391 5.39046C25.6039 4.95537 25.0138 4.71094 24.3984 4.71094C23.7831 4.71094 23.1929 4.95537 22.7578 5.39046L20.9297 7.19479L21.6697 7.86452L23.2266 6.32796Z" fill="#7A4742"/>
<path d="M7.03125 15.9375C7.03125 18.3386 6.07742 20.6413 4.37959 22.3392L3.75 22.9688H5.625V24.8438L5.70422 24.7645C7.49272 22.976 8.76153 20.7351 9.375 18.2812H10.3125V14.0625H12.6562V9.84375L11.7188 8.90625L6.09375 15L7.03125 15.9375Z" fill="#16696D"/>
<path d="M18.7736 20.1562C22.6568 20.1562 25.8048 17.0083 25.8048 13.125C25.8048 9.24175 22.6568 6.09375 18.7736 6.09375C14.8903 6.09375 11.7423 9.24175 11.7423 13.125C11.7423 17.0083 14.8903 20.1562 18.7736 20.1562Z" fill="#7A4742"/>
<path d="M14.5312 14.0625C14.5313 13.0718 14.7407 12.0924 15.1457 11.1884C15.5507 10.2843 16.1422 9.476 16.8813 8.81644C17.6205 8.15688 18.4906 7.66093 19.4348 7.36108C20.3789 7.06124 21.3758 6.96427 22.36 7.07652C21.4584 6.54189 20.4486 6.21563 19.4046 6.12161C18.3605 6.02758 17.3087 6.16817 16.326 6.53309C15.3433 6.89801 14.4547 7.47802 13.7251 8.23068C12.9955 8.98334 12.4434 9.88961 12.1092 10.8832C11.775 11.8767 11.6672 12.9324 11.7937 13.973C11.9201 15.0136 12.2776 16.0128 12.84 16.8974C13.4024 17.782 14.1555 18.5296 15.0441 19.0857C15.9328 19.6417 16.9345 19.992 17.9759 20.1109C16.926 19.4887 16.0561 18.6037 15.4521 17.5432C14.8481 16.4826 14.5307 15.283 14.5312 14.0625Z" fill="#59251F"/>
<path d="M9.375 13.5938H27.1875V28.5938H9.375V13.5938Z" fill="#DF391D"/>
<path d="M24.375 13.5938V18.0135C24.375 19.0336 24.1741 20.0437 23.7837 20.9861C23.3934 21.9285 22.8212 22.7848 22.0999 23.5061C21.3786 24.2274 20.5223 24.7996 19.5799 25.19C18.6374 25.5803 17.6274 25.7812 16.6073 25.7812C14.0775 25.7812 11.6513 24.7763 9.86244 22.9874L9.375 22.5V28.5938H27.1875V13.5938H24.375Z" fill="#912E23"/>
<path d="M16.4062 13.5938H20.1562V28.5938H16.4062V13.5938Z" fill="#30A5A5"/>
<path d="M16.6073 25.7813C16.5402 25.7813 16.4732 25.7802 16.4062 25.7788V28.5938H20.1562V24.9248C19.0586 25.4894 17.8417 25.7831 16.6073 25.7813Z" fill="#16696D"/>
<path d="M5.15625 13.125C4.85903 12.8278 4.62325 12.4749 4.4624 12.0866C4.30154 11.6983 4.21875 11.282 4.21875 10.8617V10.7812H3.98438C3.67357 10.7812 3.3755 10.6578 3.15573 10.438C2.93597 10.2182 2.8125 9.92018 2.8125 9.60938C2.8125 9.29857 2.93597 9.0005 3.15573 8.78073C3.3755 8.56097 3.67357 8.4375 3.98438 8.4375H7.03125L9.84375 5.625V2.57812C9.84375 2.26732 9.96722 1.96925 10.187 1.74948C10.4068 1.52972 10.7048 1.40625 11.0156 1.40625C11.3264 1.40625 11.6245 1.52972 11.8443 1.74948C12.064 1.96925 12.1875 2.26732 12.1875 2.57812V2.8125H12.2679C12.6883 2.8125 13.1045 2.89529 13.4928 3.05615C13.8812 3.217 14.234 3.45278 14.5312 3.75L15 4.21875L5.625 13.5938L5.15625 13.125Z" fill="#16696D"/>
<path d="M11.25 5.62501V2.57813C11.25 2.39643 11.2924 2.21723 11.3737 2.05477C11.4551 1.8923 11.5732 1.75105 11.7188 1.64221C11.5449 1.5111 11.3379 1.43108 11.1211 1.41116C10.9043 1.39124 10.6862 1.4322 10.4914 1.52945C10.2966 1.62669 10.1327 1.77636 10.0183 1.96162C9.90391 2.14688 9.84345 2.36039 9.84375 2.57813V5.62501L7.03125 8.4375H8.4375L11.25 5.62501Z" fill="#30A5A5"/>
<path d="M5.625 10.8617V10.7812H5.39062C5.07982 10.7812 4.78175 10.6578 4.56198 10.438C4.34221 10.2182 4.21875 9.92018 4.21875 9.60938C4.21875 9.29857 4.34221 9.0005 4.56198 8.78073C4.78175 8.56097 5.07982 8.4375 5.39062 8.4375H3.98437C3.67357 8.4375 3.3755 8.56097 3.15573 8.78073C2.93597 9.0005 2.8125 9.29857 2.8125 9.60938C2.8125 9.92018 2.93597 10.2182 3.15573 10.438C3.3755 10.6578 3.67357 10.7812 3.98437 10.7812H4.21875V10.8617C4.21875 11.282 4.30154 11.6983 4.4624 12.0866C4.62325 12.4749 4.85902 12.8278 5.15625 13.125L5.625 13.5938L6.34055 12.8782C5.87775 12.308 5.62511 11.5961 5.625 10.8617Z" fill="#30A5A5"/>
<path d="M8.90625 10.3125L6.85377 8.26002C6.66729 8.07354 6.56252 7.82062 6.5625 7.55689C6.5625 7.42631 6.58822 7.297 6.63819 7.17636C6.68817 7.05571 6.76141 6.94609 6.85375 6.85375C6.94609 6.76141 7.05571 6.68817 7.17636 6.63819C7.297 6.58822 7.42631 6.5625 7.55689 6.5625H7.96875V6.15064C7.96875 5.88691 8.07352 5.63399 8.26 5.4475C8.44649 5.26102 8.69941 5.15625 8.96314 5.15625C9.22687 5.15627 9.47979 5.26104 9.66627 5.44752L11.7188 7.5L8.90625 10.3125Z" fill="#30A5A5"/>
<path d="M3.28015 14.9993L16.4032 1.87625L18.7466 4.21966L5.62357 17.3427L3.28015 14.9993Z" fill="#DF391D"/>
<path d="M4.68616 16.4055L17.8092 3.28249L18.7465 4.21983L5.6235 17.3429L4.68616 16.4055Z" fill="#912E23"/>
<path d="M8.43567 9.84399L11.2477 7.03193L13.5912 9.37534L10.7791 12.1874L8.43567 9.84399Z" fill="#30A5A5"/>
<path d="M11.25 7.03125L9.84375 5.625V6.23104C9.84374 6.44326 9.75944 6.6468 9.60938 6.79688C9.4593 6.94694 9.25576 7.03124 9.04354 7.03125H8.4375V7.63729C8.43749 7.84951 8.35319 8.05305 8.20312 8.20312C8.05305 8.35319 7.84951 8.43749 7.63729 8.4375H7.03125L8.4375 9.84375L11.25 7.03125Z" fill="#16696D"/>
<path d="M9.84167 11.25L12.6537 8.43793L13.5911 9.37527L10.779 12.1873L9.84167 11.25Z" fill="#16696D"/>
<path d="M20.8828 9.84375C20.7437 9.84375 20.6078 9.80251 20.4922 9.72525C20.3765 9.64799 20.2864 9.53818 20.2332 9.4097C20.18 9.28122 20.1661 9.13984 20.1932 9.00345C20.2203 8.86706 20.2873 8.74177 20.3856 8.64344C20.484 8.54511 20.6092 8.47814 20.7456 8.45101C20.882 8.42388 21.0234 8.4378 21.1519 8.49102C21.2804 8.54424 21.3902 8.63436 21.4674 8.74999C21.5447 8.86562 21.5859 9.00156 21.5859 9.14062C21.5857 9.32704 21.5116 9.50577 21.3798 9.63758C21.248 9.7694 21.0692 9.84355 20.8828 9.84375Z" fill="black"/>
<path d="M16.6641 9.84375C16.525 9.84375 16.3891 9.80251 16.2734 9.72525C16.1578 9.64799 16.0677 9.53818 16.0145 9.4097C15.9612 9.28122 15.9473 9.13984 15.9744 9.00345C16.0016 8.86706 16.0685 8.74177 16.1669 8.64344C16.2652 8.54511 16.3905 8.47814 16.5269 8.45101C16.6633 8.42388 16.8047 8.4378 16.9331 8.49102C17.0616 8.54424 17.1714 8.63436 17.2487 8.74999C17.3259 8.86562 17.3672 9.00156 17.3672 9.14062C17.367 9.32704 17.2928 9.50577 17.161 9.63758C17.0292 9.7694 16.8505 9.84355 16.6641 9.84375Z" fill="black"/>
<path d="M17.8039 10.7813H19.7434C20.2321 10.7813 20.7008 10.9755 21.0463 11.3211C21.3918 11.6667 21.5859 12.1354 21.5859 12.6241V13.5938H15.9609V12.6241C15.9609 12.3821 16.0086 12.1425 16.1012 11.9189C16.1939 11.6953 16.3296 11.4921 16.5007 11.321C16.6719 11.1498 16.8751 11.0141 17.0987 10.9215C17.3223 10.8289 17.5619 10.7812 17.8039 10.7813Z" fill="#E5E4CC"/>
<path d="M19.2423 10.7812H18.3048C17.787 10.7812 17.3673 11.201 17.3673 11.7188C17.3673 12.2365 17.787 12.6562 18.3048 12.6562H19.2423C19.7601 12.6562 20.1798 12.2365 20.1798 11.7188C20.1798 11.201 19.7601 10.7812 19.2423 10.7812Z" fill="#59251F"/>
<path d="M20.1562 1.875H21.0938V2.8125H20.1562V1.875Z" fill="#FCDD69"/>
<path d="M22.0312 1.875H22.9688V2.8125H22.0312V1.875Z" fill="#FCDD69"/>
<path d="M21.0938 0.9375H22.0312V1.875H21.0938V0.9375Z" fill="#FCDD69"/>
<path d="M21.0938 2.8125H22.0312V3.75H21.0938V2.8125Z" fill="#FCDD69"/>
<path d="M26.25 2.8125H27.1875V3.75H26.25V2.8125Z" fill="#FCDD69"/>
<path d="M28.125 2.8125H29.0625V3.75H28.125V2.8125Z" fill="#FCDD69"/>
<path d="M27.1875 1.875H28.125V2.8125H27.1875V1.875Z" fill="#FCDD69"/>
<path d="M27.1875 3.75H28.125V4.6875H27.1875V3.75Z" fill="#FCDD69"/>
<path d="M9.84375 22.9688L12.6562 25.7812L13.5938 22.0312L9.84375 22.9688Z" fill="#EF705F"/>
<path d="M15 26.7188C15.5178 26.7188 15.9375 26.299 15.9375 25.7812C15.9375 25.2635 15.5178 24.8438 15 24.8438C14.4822 24.8438 14.0625 25.2635 14.0625 25.7812C14.0625 26.299 14.4822 26.7188 15 26.7188Z" fill="#EF705F"/>
<path d="M11.25 16.875C11.7678 16.875 12.1875 16.4553 12.1875 15.9375C12.1875 15.4197 11.7678 15 11.25 15C10.7322 15 10.3125 15.4197 10.3125 15.9375C10.3125 16.4553 10.7322 16.875 11.25 16.875Z" fill="#EF705F"/>
<path d="M22.0312 22.9688C22.549 22.9688 22.9688 22.549 22.9688 22.0312C22.9688 21.5135 22.549 21.0938 22.0312 21.0938C21.5135 21.0938 21.0938 21.5135 21.0938 22.0312C21.0938 22.549 21.5135 22.9688 22.0312 22.9688Z" fill="#EF705F"/>
<path d="M23.4375 24.8438V28.125L26.25 25.7812L23.4375 24.8438Z" fill="#EF705F"/>
<path d="M22.0312 15.4688L23.9062 18.75L25.7812 15.9375L22.0312 15.4688Z" fill="#EF705F"/>
<path d="M12.1875 19.2188L14.0625 16.4062L15.4688 19.2188H12.1875Z" fill="#EF705F"/>
</svg>
