<svg width="31" height="31" viewBox="0 0 31 31" fill="none" xmlns="http://www.w3.org/2000/svg">
<path d="M30.0255 15.2499C30.0255 14.8154 29.6732 14.4632 29.2387 14.4632H28.0008L29.1793 13.2847C29.4866 12.9774 29.4866 12.4793 29.1793 12.1721C28.872 11.8649 28.3739 11.8648 28.0667 12.1721L25.7755 14.4632H24.611L25.7894 13.2847C26.0967 12.9775 26.0967 12.4793 25.7894 12.1721C25.4821 11.8649 24.984 11.8649 24.6768 12.1721L22.3856 14.4633H16.9249L20.7863 10.6019H24.0264C24.461 10.6019 24.8132 10.2497 24.8132 9.8152C24.8132 9.38067 24.461 9.02847 24.0264 9.02847H22.3598L23.1833 8.20499H26.4234C26.858 8.20499 27.2102 7.85279 27.2102 7.41826C27.2102 6.98373 26.858 6.63153 26.4234 6.63153H24.7568L25.6322 5.75614C25.9394 5.44888 25.9394 4.95072 25.6322 4.64351C25.3249 4.33625 24.8268 4.33625 24.5195 4.64351L23.6442 5.5189V3.85203C23.6442 3.4175 23.292 3.0653 22.8574 3.0653C22.4229 3.0653 22.0707 3.4175 22.0707 3.85203V7.09219L21.2472 7.91566V6.24909C21.2472 5.81456 20.895 5.46235 20.4605 5.46235C20.026 5.46235 19.6738 5.81456 19.6738 6.24909V9.48924L15.8124 13.3506V7.88988L18.1036 5.5987C18.4108 5.29144 18.4108 4.79327 18.1036 4.48607C17.7962 4.17881 17.2981 4.17881 16.9909 4.48607L15.8124 5.66456V4.49996L18.1036 2.20878C18.4108 1.90151 18.4108 1.40335 18.1036 1.09615C17.7962 0.788884 17.2981 0.788884 16.9909 1.09615L15.8124 2.27464V1.03673C15.8123 0.602205 15.4601 0.25 15.0255 0.25C14.5911 0.25 14.2388 0.602205 14.2388 1.03673V2.27464L13.0603 1.09615C12.7531 0.788884 12.255 0.788884 11.9477 1.09615C11.6404 1.40341 11.6404 1.90157 11.9477 2.20878L14.2389 4.49996V5.66456L13.0604 4.48607C12.7531 4.17881 12.255 4.17881 11.9478 4.48607C11.6405 4.79333 11.6405 5.29149 11.9478 5.5987L14.2389 7.88988V13.3506L10.3776 9.48924V6.24903C10.3776 5.8145 10.0254 5.46229 9.59083 5.46229C9.1563 5.46229 8.8041 5.8145 8.8041 6.24903V7.91566L7.98063 7.09219V3.85197C7.98063 3.41744 7.62842 3.06524 7.19389 3.06524C6.75936 3.06524 6.40716 3.41744 6.40716 3.85197V5.5186L5.53166 4.64339C5.22439 4.33613 4.72623 4.33613 4.41903 4.64339C4.11176 4.95066 4.11176 5.44882 4.41903 5.75602L5.29441 6.63141H3.62766C3.19314 6.63141 2.84093 6.98361 2.84093 7.41814C2.84093 7.85267 3.19314 8.20488 3.62766 8.20488H6.86782L7.69129 9.02835H6.02472C5.59019 9.02835 5.23799 9.38055 5.23799 9.81508C5.23799 10.2496 5.59019 10.6018 6.02472 10.6018H9.26488L13.1262 14.4632H7.66551L5.37427 12.172C5.06701 11.8647 4.56891 11.8647 4.26164 12.172C3.95438 12.4793 3.95438 12.9774 4.26164 13.2846L5.44013 14.4631H4.27559L1.98441 12.172C1.67715 11.8647 1.17905 11.8647 0.871782 12.172C0.564518 12.4793 0.564518 12.9774 0.871782 13.2846L2.05027 14.4631H0.812368C0.37784 14.4631 0.0256348 14.8154 0.0256348 15.2499C0.0256348 15.6844 0.37784 16.0366 0.812368 16.0366H2.05033L0.871841 17.2151C0.564577 17.5224 0.564577 18.0206 0.871841 18.3278C1.02547 18.4814 1.2268 18.5582 1.42813 18.5582C1.62945 18.5582 1.83084 18.4814 1.98441 18.3278L4.27559 16.0366H5.44019L4.2617 17.2151C3.95444 17.5224 3.95444 18.0206 4.2617 18.3278C4.41533 18.4814 4.61666 18.5582 4.81799 18.5582C5.01932 18.5582 5.2207 18.4814 5.37427 18.3278L7.66545 16.0366H13.1262L9.26482 19.898H6.02466C5.59013 19.898 5.23793 20.2502 5.23793 20.6847C5.23793 21.1192 5.59013 21.4714 6.02466 21.4714H7.69129L6.86782 22.2949H3.62761C3.19308 22.2949 2.84087 22.6471 2.84087 23.0816C2.84087 23.5162 3.19308 23.8684 3.62761 23.8684H5.29424L4.41885 24.7437C4.11159 25.051 4.11159 25.5491 4.41885 25.8564C4.57248 26.01 4.77381 26.0868 4.97514 26.0868C5.17646 26.0868 5.37785 26.01 5.53142 25.8564L6.40681 24.981V26.6476C6.40681 27.0821 6.75901 27.4344 7.19354 27.4344C7.62807 27.4344 7.98027 27.0821 7.98027 26.6476V23.4075L8.80375 22.584V24.2506C8.80375 24.6852 9.15595 25.0374 9.59048 25.0374C10.025 25.0374 10.3772 24.6852 10.3772 24.2506V21.0105L14.2386 17.1491V22.6098L11.9474 24.901C11.6401 25.2083 11.6401 25.7064 11.9474 26.0136C12.2547 26.3209 12.7528 26.3209 13.06 26.0136L14.2385 24.8351V25.9997L11.9473 28.2909C11.6401 28.5981 11.6401 29.0963 11.9473 29.4035C12.101 29.5571 12.3023 29.634 12.5036 29.634C12.705 29.634 12.9063 29.5571 13.0599 29.4035L14.2384 28.225V29.4629C14.2384 29.8974 14.5907 30.2497 15.0251 30.2497C15.4597 30.2497 15.8119 29.8974 15.8119 29.4629V28.225L16.9904 29.4036C17.2977 29.7108 17.7958 29.7108 18.103 29.4036C18.4102 29.0963 18.4103 28.5982 18.103 28.2909L15.8119 25.9998V24.8351L16.9904 26.0137C17.144 26.1673 17.3454 26.2441 17.5467 26.2441C17.748 26.2441 17.9494 26.1673 18.103 26.0137C18.4102 25.7064 18.4102 25.2083 18.103 24.9011L15.8118 22.6099V17.1495L19.6732 21.0109V24.251C19.6732 24.6856 20.0254 25.0378 20.4599 25.0378C20.8944 25.0378 21.2466 24.6856 21.2466 24.251V22.5844L22.0701 23.4079V26.648C22.0701 27.0826 22.4223 27.4348 22.8568 27.4348C23.2914 27.4348 23.6436 27.0826 23.6436 26.648V24.9814L24.519 25.8568C24.6726 26.0104 24.874 26.0872 25.0752 26.0872C25.2766 26.0872 25.478 26.0104 25.6315 25.8568C25.9388 25.5495 25.9388 25.0514 25.6315 24.7442L24.7561 23.8688H26.4228C26.8573 23.8688 27.2095 23.5166 27.2095 23.082C27.2095 22.6475 26.8573 22.2953 26.4228 22.2953H23.1826L22.3592 21.4718H24.0258C24.4603 21.4718 24.8125 21.1196 24.8125 20.6851C24.8125 20.2506 24.4603 19.8984 24.0258 19.8984H20.7856L16.9243 16.037H22.385L24.6762 18.3282C24.8298 18.4818 25.0312 18.5586 25.2325 18.5586C25.4337 18.5586 25.6352 18.4818 25.7887 18.3282C26.096 18.0209 26.096 17.5228 25.7887 17.2155L24.6102 16.037H25.7748L28.066 18.3282C28.2196 18.4818 28.421 18.5586 28.6223 18.5586C28.8236 18.5586 29.025 18.4818 29.1785 18.3282C29.4858 18.0209 29.4858 17.5228 29.1785 17.2155L28 16.037H29.2379C29.6732 16.0366 30.0255 15.6844 30.0255 15.2499Z" fill="#9FC6D9"/>
</svg>
